<svg id="Calque_1" data-name="Calque 1" xmlns="http://www.w3.org/2000/svg" viewBox="0 0 1015.35 1031.23"><defs><style>.cls-1{fill:#fff;}</style></defs><rect x="16.31" width="999.03" height="1000.24"/><rect class="cls-1" x="-102.93" y="780.67" width="646.1" height="22.63" transform="translate(-167.94 1510.47) rotate(-135)"/><path class="cls-1" d="M409.42,609.39c-67.86-67.86-69.28-176.85-3.18-243s175.1-64.69,243,3.17,69.28,176.85,3.18,243S477.28,677.24,409.42,609.39Zm233-233c-64.09-64.09-167-65.49-229.34-3.12s-61,165.24,3.12,229.33,167,65.49,229.34,3.12S706.51,440.47,642.42,376.39Z" transform="translate(16.31 2.81)"/><polygon class="cls-1" points="122.47 469 123.23 459.41 532.96 495.05 497.42 86.59 507.02 85.84 542.69 495.9 952.15 531.52 951.39 541.12 543.54 505.64 578.68 909.55 569.09 910.31 533.8 504.79 122.47 469"/><polygon class="cls-1" points="568.8 912.39 823.53 214.04 125.18 468.78 121.82 459.73 839.72 197.86 577.85 915.76 568.8 912.39"/><line class="cls-1" x1="831.99" y1="206.31" x2="243.03" y2="795.27"/><rect class="cls-1" x="104.74" y="493.58" width="832.91" height="8.79" transform="translate(-183.16 517.21) rotate(-45)"/></svg>