<svg id="Calque_1" data-name="Calque 1" xmlns="http://www.w3.org/2000/svg" viewBox="0 0 999.03 1000.24"><defs><style>.cls-1{fill:#fff;}</style></defs><rect width="999.03" height="1000.24"/><rect class="cls-1" x="192.55" y="904.68" width="646.1" height="22.63" transform="translate(1031.21 1834.8) rotate(180)"/><path class="cls-1" d="M520.34,653c-96,0-174-76.06-174-169.55s78.07-169.55,174-169.55,174,76.06,174,169.55S616.31,653,520.34,653Zm0-329.51c-90.63,0-164.37,71.76-164.37,160s73.74,160,164.37,160,164.37-71.76,164.37-160S611,323.51,520.34,323.51Z" transform="translate(0 2.81)"/><polygon class="cls-1" points="204.65 769.02 198.4 761.7 513.33 497.18 199.38 233.48 205.63 226.16 520.81 490.89 835.53 226.55 841.78 233.87 528.29 497.18 838.75 757.95 832.51 765.26 520.81 503.46 204.65 769.02"/><polygon class="cls-1" points="833.77 766.94 520.09 93.01 206.41 766.94 197.63 762.92 520.09 70.12 842.55 762.92 833.77 766.94"/><line class="cls-1" x1="520.6" y1="81.56" x2="520.6" y2="914.47"/><rect class="cls-1" x="516.21" y="81.56" width="8.79" height="832.91"/></svg>